<svg width="1440" height="1120" viewBox="0 0 1440 1120" fill="none" xmlns="http://www.w3.org/2000/svg">
<g clip-path="url(#clip0_171_937)">
<rect width="1440" height="1120" transform="translate(0 0.000793457)" fill="#0C111F"/>
<rect opacity="0.05" x="1" y="548.001" width="179" height="180" fill="white"/>
<rect opacity="0.05" x="360.5" y="368.001" width="179" height="180" fill="white"/>
<rect opacity="0.05" x="1259.5" y="368.001" width="179" height="180" fill="white"/>
<rect opacity="0.05" x="900" y="548.501" width="179" height="180" fill="white"/>
<rect opacity="0.05" x="900" y="907.501" width="179" height="180" fill="white"/>
<rect opacity="0.05" x="540" y="1088.5" width="179" height="180" fill="white"/>
<path d="M0.489289 -23.9992L0.489239 1120M180.303 -23.9992L180.303 1120M360.117 -23.9992L360.117 1120M539.931 -23.9992L539.931 1120M719.745 -23.9992L719.745 1120M899.558 -23.9992L899.558 1120M1079.37 -23.9992L1079.37 1120M1259.19 -23.9992L1259.19 1120M1439 -23.9992L1439 1120M0 1088.01H1438.51M0 908.034L1438.51 908.034M0 728.054L1438.51 728.054M0 548.073L1438.51 548.074M0 368.093L1438.51 368.093M0 188.113L1438.51 188.113M0 8.13249L1438.51 8.13255" stroke="url(#paint0_linear_171_937)" stroke-opacity="0.3"/>
<g opacity="0.08" filter="url(#filter0_f_171_937)">
<circle cx="33" cy="0.000793457" r="325" fill="white"/>
</g>
</g>
<defs>
<filter id="filter0_f_171_937" x="-672" y="-704.999" width="1410" height="1410" filterUnits="userSpaceOnUse" color-interpolation-filters="sRGB">
<feFlood flood-opacity="0" result="BackgroundImageFix"/>
<feBlend mode="normal" in="SourceGraphic" in2="BackgroundImageFix" result="shape"/>
<feGaussianBlur stdDeviation="190" result="effect1_foregroundBlur_171_937"/>
</filter>
<linearGradient id="paint0_linear_171_937" x1="612" y1="1216" x2="460" y2="35.5009" gradientUnits="userSpaceOnUse">
<stop stop-color="white"/>
<stop offset="1" stop-color="white" stop-opacity="0"/>
</linearGradient>
<clipPath id="clip0_171_937">
<rect width="1440" height="1120" fill="white" transform="translate(0 0.000793457)"/>
</clipPath>
</defs>
</svg>
