<svg width="1280" height="776" viewBox="0 0 1280 776" fill="none" xmlns="http://www.w3.org/2000/svg">
<path d="M-32 0H1308.5H1400C1416.67 183 1430.1 548.8 1350.5 548C1251 547 1106.5 563.5 919 681C731.5 798.5 534 758 371 665.5C240.6 591.5 48 708.333 -32 776V0Z" fill="#8D72E1"/>
<path d="M-411.464 -20.4313C-629.964 25.0687 -557.464 223.569 -557.464 233.569C-525.297 244.902 -451.064 288.569 -411.464 372.569C-361.964 477.569 50.0363 303.069 182.036 288.569C314.036 274.069 322.536 59.0687 289.536 -80.4313C256.536 -219.931 34.0363 -185.431 -83.4637 -126.931C-200.964 -68.4313 -192.964 -65.9313 -411.464 -20.4313Z" fill="white" fill-opacity="0.17"/>
</svg>
