<svg width="136" height="24" viewBox="0 0 136 24" fill="none" xmlns="http://www.w3.org/2000/svg">
<path d="M6.56 23C6.26133 23 6.02667 22.904 5.856 22.712C5.70667 22.52 5.632 22.2427 5.632 21.88C5.632 21.3467 5.824 20.952 6.208 20.696C6.592 20.4187 7.104 20.28 7.744 20.28H8.032V3.768H3.52L3.072 5.272C2.88 5.93333 2.67733 6.424 2.464 6.744C2.25067 7.04267 1.96267 7.192 1.6 7.192C1.344 7.192 1.13067 7.128 0.96 7C0.789333 6.85067 0.704 6.63733 0.704 6.36V0.759998H20.16V6.36C20.16 6.63733 20.0747 6.85067 19.904 7C19.7333 7.128 19.52 7.192 19.264 7.192C18.9013 7.192 18.6133 7.04267 18.4 6.744C18.1867 6.424 17.984 5.93333 17.792 5.272L17.344 3.768H12.832V20.312L14.048 20.92C14.5813 21.176 14.944 21.4107 15.136 21.624C15.3493 21.816 15.456 22.0613 15.456 22.36C15.456 22.5733 15.4133 22.7333 15.328 22.84C15.2427 22.9467 15.0827 23 14.848 23H6.56ZM21.537 23C21.2383 23 21.0037 22.904 20.833 22.712C20.6837 22.52 20.609 22.2427 20.609 21.88C20.609 21.3467 20.801 20.952 21.185 20.696C21.569 20.4187 22.081 20.28 22.721 20.28H23.041L30.401 0.759998H35.553L42.977 20.312L44.065 20.76C44.577 20.9733 44.9397 21.1867 45.153 21.4C45.3663 21.592 45.473 21.848 45.473 22.168C45.473 22.7227 45.2917 23 44.929 23H36.097C35.7983 23 35.5637 22.904 35.393 22.712C35.2437 22.52 35.169 22.2427 35.169 21.88C35.169 21.3467 35.361 20.952 35.745 20.696C36.129 20.4187 36.641 20.28 37.281 20.28H38.145L36.705 16.632H27.937L26.561 20.312L28.289 20.952C28.865 21.1653 29.2597 21.368 29.473 21.56C29.6863 21.752 29.793 21.9973 29.793 22.296C29.793 22.7653 29.6117 23 29.249 23H21.537ZM35.617 13.624L32.353 4.76L29.057 13.624H35.617ZM50.0645 23C49.7658 23 49.5312 22.904 49.3605 22.712C49.2112 22.52 49.1365 22.2427 49.1365 21.88C49.1365 21.3467 49.3285 20.952 49.7125 20.696C50.0965 20.4187 50.6085 20.28 51.2485 20.28H51.5365V3.48H50.0645C49.7658 3.48 49.5312 3.384 49.3605 3.192C49.2112 3 49.1365 2.72267 49.1365 2.36C49.1365 1.82667 49.3285 1.432 49.7125 1.176C50.0965 0.898665 50.6085 0.759998 51.2485 0.759998H58.3525C58.5872 0.759998 58.7472 0.813332 58.8325 0.919998C58.9178 1.02666 58.9605 1.18667 58.9605 1.4C58.9605 1.69867 58.8538 1.95467 58.6405 2.168C58.4485 2.36 58.0858 2.584 57.5525 2.84L56.3365 3.448V20.312L57.5525 20.92C58.0858 21.176 58.4485 21.4107 58.6405 21.624C58.8538 21.816 58.9605 22.0613 58.9605 22.36C58.9605 22.5733 58.9178 22.7333 58.8325 22.84C58.7472 22.9467 58.5872 23 58.3525 23H50.0645ZM64.9167 23C64.7034 23 64.5327 22.9253 64.4047 22.776C64.2767 22.6267 64.2127 22.392 64.2127 22.072C64.2127 21.624 64.3621 21.2827 64.6607 21.048C64.9594 20.792 65.5141 20.504 66.3247 20.184L66.7407 20.024V3.48H65.2687C64.9701 3.48 64.7354 3.384 64.5647 3.192C64.4154 3 64.3407 2.72267 64.3407 2.36C64.3407 1.82667 64.5327 1.432 64.9167 1.176C65.3007 0.898665 65.8127 0.759998 66.4527 0.759998H73.8767C74.1114 0.759998 74.2714 0.813332 74.3567 0.919998C74.4421 1.02666 74.4847 1.18667 74.4847 1.4C74.4847 1.72 74.3781 1.98667 74.1647 2.2C73.9514 2.41333 73.5887 2.62667 73.0767 2.84L71.5407 3.448V19.992H80.0847L80.8207 17.976C81.1194 17.144 81.3754 16.568 81.5887 16.248C81.8021 15.9067 82.0581 15.736 82.3567 15.736C82.6341 15.736 82.8261 15.8 82.9327 15.928C83.0394 16.056 83.0927 16.2373 83.0927 16.472V23H64.9167ZM114.554 23C114.255 23 114.02 22.904 113.85 22.712C113.7 22.52 113.626 22.2427 113.626 21.88C113.626 21.3467 113.818 20.952 114.202 20.696C114.586 20.4187 115.098 20.28 115.738 20.28H116.026V3.544L115.61 3.384C114.799 3.08533 114.244 2.82933 113.946 2.616C113.647 2.40267 113.498 2.09333 113.498 1.688C113.498 1.368 113.562 1.13333 113.69 0.983999C113.818 0.834665 113.988 0.759998 114.202 0.759998H124.698C127.172 0.759998 129.124 1.336 130.554 2.488C131.983 3.61867 132.698 5.21867 132.698 7.288C132.698 9.10133 132.143 10.552 131.034 11.64C129.946 12.7067 128.41 13.3573 126.426 13.592L132.218 20.408L133.754 20.952C134.287 21.1227 134.671 21.3147 134.906 21.528C135.14 21.7413 135.258 22.008 135.258 22.328C135.258 22.5413 135.215 22.712 135.13 22.84C135.044 22.9467 134.884 23 134.65 23H127.994L120.826 13.752V20.312L122.042 20.92C122.575 21.176 122.938 21.4107 123.13 21.624C123.343 21.816 123.45 22.0613 123.45 22.36C123.45 22.5733 123.407 22.7333 123.322 22.84C123.236 22.9467 123.076 23 122.842 23H114.554ZM124.25 11C125.402 11 126.298 10.68 126.938 10.04C127.578 9.37867 127.898 8.46133 127.898 7.288C127.898 6.11467 127.578 5.208 126.938 4.568C126.298 3.90667 125.402 3.576 124.25 3.576H120.826V11H124.25Z" fill="#F7C8E0"/>
<path d="M97.6698 23.48C95.5791 23.48 93.7018 23.0747 92.0378 22.264C90.3951 21.432 89.0831 20.152 88.1017 18.424C87.1417 16.6747 86.6617 14.4987 86.6617 11.896C86.6617 9.29333 87.1417 7.128 88.1017 5.4C89.0831 3.65067 90.3951 2.36 92.0378 1.528C93.7018 0.695999 95.5791 0.279999 97.6698 0.279999C99.7604 0.279999 101.627 0.695999 103.27 1.528C104.934 2.36 106.246 3.65067 107.206 5.4C108.187 7.128 108.678 9.29333 108.678 11.896C108.678 14.4987 108.187 16.6747 107.206 18.424C106.246 20.152 104.934 21.432 103.27 22.264C101.627 23.0747 99.7604 23.48 97.6698 23.48ZM97.6698 20.472C99.6964 20.472 101.222 19.7467 102.246 18.296C103.291 16.824 103.814 14.6907 103.814 11.896C103.814 9.10133 103.291 6.968 102.246 5.496C101.222 4.024 99.6964 3.288 97.6698 3.288C95.6431 3.288 94.1071 4.024 93.0617 5.496C92.0378 6.968 91.5258 9.10133 91.5258 11.896C91.5258 14.6907 92.0378 16.824 93.0617 18.296C94.1071 19.7467 95.6431 20.472 97.6698 20.472Z" fill="#FBFFB1"/>
</svg>
